<svg xmlns="http://www.w3.org/2000/svg" width="1200" height="380" viewBox="0 0 1200 380" role="img" aria-label="claude-in-codex — run Claude Code from inside Codex">
  <defs>
    <radialGradient id="bg" cx="50%" cy="18%" r="95%">
      <stop offset="0%" stop-color="#191734"/>
      <stop offset="60%" stop-color="#0C0B1A"/>
      <stop offset="100%" stop-color="#070610"/>
    </radialGradient>
    <linearGradient id="wire" x1="0" y1="0" x2="1" y2="0">
      <stop offset="0%" stop-color="#10A37F"/>
      <stop offset="50%" stop-color="#7B39FE"/>
      <stop offset="100%" stop-color="#D97757"/>
    </linearGradient>
    <linearGradient id="title" x1="0" y1="0" x2="1" y2="0">
      <stop offset="0%" stop-color="#FFFFFF"/>
      <stop offset="55%" stop-color="#E7DEFF"/>
      <stop offset="100%" stop-color="#B79BFF"/>
    </linearGradient>
    <radialGradient id="codexGlow" cx="50%" cy="50%" r="50%">
      <stop offset="0%" stop-color="#10A37F" stop-opacity=".9"/>
      <stop offset="100%" stop-color="#10A37F" stop-opacity="0"/>
    </radialGradient>
    <radialGradient id="claudeGlow" cx="50%" cy="50%" r="50%">
      <stop offset="0%" stop-color="#D97757" stop-opacity=".9"/>
      <stop offset="100%" stop-color="#D97757" stop-opacity="0"/>
    </radialGradient>
    <filter id="soft" x="-60%" y="-60%" width="220%" height="220%">
      <feGaussianBlur stdDeviation="6"/>
    </filter>
    <style>
      .mono { font-family: "SFMono-Regular", "JetBrains Mono", Consolas, "Liberation Mono", monospace; }
      .sans { font-family: "Segoe UI", Helvetica, Arial, sans-serif; }
      @keyframes breathe { 0%,100% { opacity:.35 } 50% { opacity:.9 } }
      @keyframes float { 0%,100% { transform: translateY(0) } 50% { transform: translateY(-10px) } }
      .halo { animation: breathe 4s ease-in-out infinite; }
      .drift { animation: float 6s ease-in-out infinite; }
    </style>
  </defs>

  <!-- Panel -->
  <rect width="1200" height="380" rx="28" fill="url(#bg)"/>
  <rect x="1" y="1" width="1198" height="378" rx="27" fill="none" stroke="#7B39FE" stroke-opacity=".18"/>

  <!-- Drifting particles -->
  <g fill="#7B39FE" opacity=".5">
    <circle class="drift" cx="150" cy="70" r="2" style="animation-delay:0s"/>
    <circle class="drift" cx="1040" cy="90" r="2.5" style="animation-delay:1.5s"/>
    <circle class="drift" cx="600" cy="48" r="2" style="animation-delay:2.4s"/>
    <circle class="drift" cx="300" cy="320" r="2.5" style="animation-delay:.8s"/>
    <circle class="drift" cx="900" cy="310" r="2" style="animation-delay:3s"/>
  </g>

  <!-- Connection wire between the two engines -->
  <path id="link" d="M 300 190 C 470 120, 730 260, 900 190" fill="none"
        stroke="url(#wire)" stroke-width="3" stroke-opacity=".55" stroke-linecap="round"/>

  <!-- Pulses traveling along the wire (bidirectional delegation) -->
  <circle r="6" fill="#B79BFF">
    <animateMotion dur="2.6s" repeatCount="indefinite" rotate="auto"
      keyPoints="0;1" keyTimes="0;1" calcMode="spline" keySplines="0.4 0 0.2 1">
      <mpath href="#link"/>
    </animateMotion>
    <animate attributeName="opacity" values="0;1;1;0" keyTimes="0;0.1;0.9;1" dur="2.6s" repeatCount="indefinite"/>
  </circle>
  <circle r="5" fill="#7BE0C4">
    <animateMotion dur="2.6s" begin="1.3s" repeatCount="indefinite" rotate="auto"
      keyPoints="1;0" keyTimes="0;1" calcMode="spline" keySplines="0.4 0 0.2 1">
      <mpath href="#link"/>
    </animateMotion>
    <animate attributeName="opacity" values="0;1;1;0" keyTimes="0;0.1;0.9;1" dur="2.6s" begin="1.3s" repeatCount="indefinite"/>
  </circle>

  <!-- Codex node (host) -->
  <g transform="translate(300 190)">
    <circle class="halo" r="70" fill="url(#codexGlow)"/>
    <circle r="46" fill="#0E1512" stroke="#10A37F" stroke-width="2.5"/>
    <text x="0" y="8" text-anchor="middle" class="mono" font-size="30" fill="#3DDBB0" font-weight="700">&gt;_</text>
    <text x="0" y="84" text-anchor="middle" class="sans" font-size="16" fill="#8FB9AC" font-weight="600" letter-spacing="1">CODEX</text>
    <text x="0" y="104" text-anchor="middle" class="sans" font-size="11" fill="#5E7A70">host</text>
  </g>

  <!-- Claude node (engine) -->
  <g transform="translate(900 190)">
    <circle class="halo" r="70" fill="url(#claudeGlow)" style="animation-delay:2s"/>
    <circle r="46" fill="#1A110D" stroke="#D97757" stroke-width="2.5"/>
    <!-- Claude logo mark (official Anthropic wordmark glyph) -->
    <g transform="translate(-18 -18) scale(1.5)" fill="#D97757">
      <path d="m4.7144 15.9555 4.7174-2.6471.079-.2307-.079-.1275h-.2307l-.7893-.0486-2.6956-.0729-2.3375-.0971-2.2646-.1214-.5707-.1215-.5343-.7042.0546-.3522.4797-.3218.686.0608 1.5179.1032 2.2767.1578 1.6514.0972 2.4468.255h.3886l.0546-.1579-.1336-.0971-.1032-.0972L6.973 9.8356l-2.55-1.6879-1.3356-.9714-.7225-.4918-.3643-.4614-.1578-1.0078.6557-.7225.8803.0607.2246.0607.8925.686 1.9064 1.4754 2.4893 1.8336.3643.3035.1457-.1032.0182-.0728-.164-.2733-1.3539-2.4467-1.445-2.4893-.6435-1.032-.17-.6194c-.0607-.255-.1032-.4674-.1032-.7285L6.287.1335 6.6997 0l.9957.1336.419.3642.6192 1.4147 1.0018 2.2282 1.5543 3.0296.4553.8985.2429.8318.091.255h.1579v-.1457l.1275-1.706.2368-2.0947.2307-2.6957.0789-.7589.3764-.9107.7468-.4918.5828.2793.4797.686-.0668.4433-.2853 1.8517-.5586 2.9021-.3643 1.9429h.2125l.2429-.2429.9835-1.3053 1.6514-2.0643.7286-.8196.85-.9046.5464-.4311h1.0321l.759 1.1293-.34 1.1657-1.0625 1.3478-.8804 1.1414-1.2628 1.7-.7893 1.36.0729.1093.1882-.0183 2.8535-.607 1.5421-.2794 1.8396-.3157.8318.3886.091.3946-.3278.8075-1.967.4857-2.3072.4614-3.4364.8136-.0425.0304.0486.0607 1.5482.1457.6618.0364h1.621l3.0175.2247.7892.522.4736.6376-.079.4857-1.2142.6193-1.6393-.3886-3.825-.9107-1.3113-.3279h-.1822v.1093l1.0929 1.0686 2.0035 1.8092 2.5075 2.3314.1275.5768-.3218.4554-.34-.0486-2.2039-1.6575-.85-.7468-1.9246-1.621h-.1275v.17l.4432.6496 2.3436 3.5214.1214 1.0807-.17.3521-.6071.2125-.6679-.1214-1.3721-1.9246L14.38 17.959l-1.1414-1.9428-.1397.079-.674 7.2552-.3156.3703-.7286.2793-.6071-.4614-.3218-.7468.3218-1.4753.3886-1.9246.3157-1.53.2853-1.9004.17-.6314-.0121-.0425-.1397.0182-1.4328 1.9672-2.1796 2.9446-1.7243 1.8456-.4128.164-.7164-.3704.0667-.6618.4008-.5889 2.386-3.0357 1.4389-1.882.929-1.0868-.0062-.1579h-.0546l-6.3385 4.1164-1.1293.1457-.4857-.4554.0608-.7467.2307-.2429 1.9064-1.3114Z"/>
    </g>
    <text x="0" y="84" text-anchor="middle" class="sans" font-size="16" fill="#D9A48F" font-weight="600" letter-spacing="1">CLAUDE</text>
    <text x="0" y="104" text-anchor="middle" class="sans" font-size="11" fill="#8A6656">engine</text>
  </g>

  <!-- Wordmark -->
  <text x="600" y="300" text-anchor="middle" class="mono" font-size="52" font-weight="800" fill="url(#title)">claude-in-codex</text>
  <text x="600" y="338" text-anchor="middle" class="sans" font-size="18" fill="#9C8FD6">Run Claude Code reviews, rescues &amp; thread transfers — from inside Codex</text>
</svg>
